<?xml version="1.0" encoding="utf-8"?>
<!-- Generator: Adobe Illustrator 20.1.0, SVG Export Plug-In . SVG Version: 6.00 Build 0)  -->
<svg version="1.1" xmlns="http://www.w3.org/2000/svg" xmlns:xlink="http://www.w3.org/1999/xlink" x="0px" y="0px"
	 viewBox="0 0 768 3710" style="enable-background:new 0 0 768 3710;" xml:space="preserve">
<style type="text/css">
	.st0{display:none;}
	.st1{display:inline;}
	.st2{font-family:'Verdana-Bold';}
	.st3{font-size:18px;}
	.st4{display:inline;fill:none;}
	.st5{font-size:40px;}
	.st6{display:inline;fill:#444444;}
	.st7{font-family:'OpenSans';}
	.st8{font-size:16px;}
	.st9{fill:#444444;}
	.st10{font-family:'OpenSans-Bold';}
	.st11{font-size:20px;}
	.st12{font-size:15px;}
	.st13{fill:#63D1BB;}
	.st14{fill:#FFFFFF;}
	.st15{font-family:'Tahoma-Bold';}
	.st16{fill:#231F20;}
	.st17{display:none;opacity:0.502;}
	.st18{font-size:14px;}
	.st19{font-family:'Verdana';}
	.st20{opacity:0.102;}
	.st21{opacity:0.2;}
</style>
<g id="white_back_xA0_Изображение_1_" class="st0">
	
		<image style="display:inline;overflow:visible;" width="768" height="3623" id="white_back_xA0_Изображение" xlink:href="3C3A06F4.png" >
	</image>
</g>
<g id="footer_1_" class="st0">
	<g id="grey_back_xA0_Изображение_3_">
		
			<image style="display:inline;overflow:visible;" width="768" height="143" id="grey_back_xA0_Изображение_2_" xlink:href="3C3A06F5.png"  transform="matrix(1 0 0 1 0 3567)">
		</image>
	</g>
	<g id="Разработано">
		<text transform="matrix(1 0 0 1 534.3857 3645.9932)" class="st1 st2 st3">Разработано</text>
	</g>
	<g id="logo-footer.svg_xA0_Изображение_1_">
		
			<image style="display:inline;overflow:visible;" width="102" height="34" id="logo-footer.svg_xA0_Изображение" xlink:href="3C3A06F3.png"  transform="matrix(1 0 0 1 50 3618)">
		</image>
	</g>
	<g id="htmlacademy.svg_xA0_Изображение_1_">
		
			<image style="display:inline;overflow:visible;" width="27" height="34" id="htmlacademy.svg_xA0_Изображение" xlink:href="3C3A06FC.png"  transform="matrix(1 0 0 1 691 3625)">
		</image>
	</g>
	<g id="twitter.svg_xA0_Изображение_1_">
		
			<image style="display:inline;overflow:visible;" width="24" height="20" id="twitter.svg_xA0_Изображение" xlink:href="3C3A06FF.png"  transform="matrix(1 0 0 1 428 3630)">
		</image>
	</g>
	<g id="fb.svg_xA0_Изображение_1_">
		
			<image style="display:inline;overflow:visible;" width="15" height="29" id="fb.svg_xA0_Изображение" xlink:href="3C3A06FD.png"  transform="matrix(1 0 0 1 374 3624)">
		</image>
	</g>
	<g id="insta.svg_xA0_Изображение_1_">
		
			<image style="display:inline;overflow:visible;" width="22" height="21" id="insta.svg_xA0_Изображение" xlink:href="3C3A06F2.png"  transform="matrix(1 0 0 1 311 3630)">
		</image>
	</g>
	<g id="map-tablet.jpg_xA0_Изображение_1_">
		
			<image style="display:inline;overflow:visible;" width="768" height="457" id="map-tablet.jpg_xA0_Изображение" xlink:href="3C3A06F6.png"  transform="matrix(1 0 0 1 0 2946)">
		</image>
	</g>
</g>
<g id="contacts_1_" class="st0">
	<g id="map-pin.svg_xA0_Изображение_1_">
		
			<image style="display:inline;overflow:visible;" width="67" height="100" id="map-pin.svg_xA0_Изображение" xlink:href="3C3A06F7.png"  transform="matrix(1 0 0 1 347 3111)">
		</image>
	</g>
	<g id="flag.svg_xA0_Изображение_1_">
		
			<image style="display:inline;overflow:visible;" width="47" height="81" id="flag.svg_xA0_Изображение" xlink:href="B4630193.png"  transform="matrix(1 0 0 1 668 2686)">
		</image>
	</g>
	<g id="Контакты">
		<rect x="46" y="2709" class="st4" width="877.2" height="73.7"/>
		<text transform="matrix(1 0 0 1 46 2739.3999)" class="st1 st2 st5">Контакты</text>
	</g>
	<g id="info_x40_mimimishkashop.ru">
		<rect x="127" y="2808" class="st4" width="227" height="154.6"/>
		<text transform="matrix(1 0 0 1 127 2819.3599)" class="st6 st7 st8">info@mimimishkashop.ru</text>
	</g>
	<g id="link_underline_xA0_Изображение_1_">
		
			<image style="display:inline;overflow:visible;" width="177" height="1" id="link_underline_xA0_Изображение" xlink:href="B4630191.png"  transform="matrix(1 0 0 1 127 2826)">
		</image>
	</g>
	<g id="e-mail:">
		<rect x="50" y="2808" class="st4" width="61" height="145.2"/>
		<text transform="matrix(1 0 0 1 50 2819.3599)" class="st6 st7 st8">e-mail:</text>
	</g>
	
		<g id="г._Санкт-Петербург_x2C__ул._Большая_Конюшенная_x2C___д._19_x2F_8_x2C__офис_101_1_">
		<rect x="461" y="2808" class="st4" width="227" height="154.6"/>
		
			<text id="г._Санкт-Петербург_x2C__ул._Большая_Конюшенная_x2C___д._19_x2F_8_x2C__офис_101" transform="matrix(1 0 0 1 461 2819.3599)" class="st1"><tspan x="0" y="0" class="st9 st7 st8">г. Санкт-Петербург,</tspan><tspan x="0" y="30" class="st9 st7 st8">ул. Большая Конюшенная, </tspan><tspan x="0" y="60" class="st9 st7 st8">д. 19/8, офис 101</tspan></text>
	</g>
	<g id="адрес:">
		<rect x="383" y="2808" class="st4" width="61" height="145.2"/>
		<text transform="matrix(1 0 0 1 383 2819.3599)" class="st6 st7 st8">адрес:</text>
	</g>
	<g id="ghost_btn_xA0_Изображение_5_">
		
			<image style="display:inline;overflow:visible;" width="230" height="52" id="ghost_btn_xA0_Изображение_4_" xlink:href="B4630197.png"  transform="matrix(1 0 0 1 269 3458)">
		</image>
	</g>
	<g id="НАпишите_нам">
		<text transform="matrix(1 0 0 1 324.1606 3488.8438)" class="st6 st10 st8">НАпишите нам</text>
	</g>
</g>
<g id="about_1_" class="st0">
	<g id="review_xA0_Изображение_1_">
		
			<image style="display:inline;overflow:visible;" width="350" height="457" id="review_xA0_Изображение" xlink:href="B4630192.png"  transform="matrix(1 0 0 1 0 2098)">
		</image>
	</g>
	<g id="Отзывы">
		<rect x="45" y="2183" class="st4" width="700" height="73.7"/>
		<text transform="matrix(1 0 0 1 45 2213.3999)" class="st1 st2 st5">Отзывы</text>
	</g>
	<g id="Коротко_о_нас:">
		<rect x="46" y="1516" class="st4" width="700" height="73.7"/>
		<text transform="matrix(1 0 0 1 46 1546.3998)" class="st1 st2 st5">Коротко о нас:</text>
	</g>
	
		<g id="Я_молодая_мама_x2C__но_все_равно_фотографии_не_набирали_и_близко_та_1_">
		<rect x="49" y="2282" class="st4" width="700" height="122.6"/>
		
			<text id="Я_молодая_мама_x2C__но_все_равно_фотографии_не_набирали_и_близко_та" transform="matrix(1 0 0 1 49 2293.3599)" class="st1"><tspan x="0" y="0" class="st9 st7 st8">Я молодая мама, но все равно фотографии не набирали и близко такого количества лайков, как у </tspan><tspan x="0" y="30" class="st9 st7 st8">популярных инстамамочек. В отчаянии, я накупила аксессуаров и игрушек в Мишке и мои </tspan><tspan x="0" y="60" class="st9 st7 st8">фотографии сразу стали более стильнее, а также набирают больше лайков!</tspan></text>
	</g>
	<g id="ghost_btn_xA0_Изображение_3_">
		
			<image style="display:inline;overflow:visible;" width="175" height="52" id="ghost_btn_xA0_Изображение_2_" xlink:href="B463018D.png"  transform="matrix(1 0 0 1 543 2177)">
		</image>
	</g>
	<g id="huge-arrow-left.svg_xA0_Изображение_1_">
		
			<image style="display:inline;overflow:visible;" width="50" height="26" id="huge-arrow-left.svg_xA0_Изображение" xlink:href="B463018E.png"  transform="matrix(1 0 0 1 562 2418)">
		</image>
	</g>
	<g id="huge-arrow-right.svg_xA0_Изображение_1_">
		
			<image style="display:inline;overflow:visible;" width="50" height="26" id="huge-arrow-right.svg_xA0_Изображение" xlink:href="B463018F.png"  transform="matrix(1 0 0 1 649 2418)">
		</image>
	</g>
	<g id="Написать">
		<text transform="matrix(1 0 0 1 594.4802 2207.8438)" class="st6 st10 st8">Написать</text>
	</g>
	<g id="Поддержка_отечественного_производителя_1_">
		<rect x="384" y="1818.8" class="st4" width="350" height="139.4"/>
		
			<text id="Поддержка_отечественного_производителя" transform="matrix(1 0 0 1 384 1833.9666)" class="st1"><tspan x="0" y="0" class="st2 st11">Поддержка отечественного </tspan><tspan x="0" y="24" class="st2 st11">производителя</tspan></text>
	</g>
	<g id="Скандинавский_стиль__по_российской_цене_1_">
		<rect x="50" y="1818.8" class="st4" width="350" height="139.4"/>
		
			<text id="Скандинавский_стиль__по_российской_цене" transform="matrix(1 0 0 1 50 1833.9666)" class="st1"><tspan x="0" y="0" class="st2 st11">Скандинавский стиль </tspan><tspan x="0" y="24" class="st2 st11">по российской цене</tspan></text>
	</g>
	<g id="Связано_вручную_с__любовью_и_умилением_1_">
		<rect x="384" y="1663.8" class="st4" width="350" height="139.4"/>
		
			<text id="Связано_вручную_с__любовью_и_умилением" transform="matrix(1 0 0 1 384 1678.9666)" class="st1"><tspan x="0" y="0" class="st2 st11">Связано вручную с </tspan><tspan x="0" y="24" class="st2 st11">любовью и умилением</tspan></text>
	</g>
	<g id="icon-2.svg_xA0_Изображение_1_">
		
			<image style="display:inline;overflow:visible;" width="35" height="34" id="icon-2.svg_xA0_Изображение" xlink:href="B46301B1.png"  transform="matrix(1 0 0 1 387 1610)">
		</image>
	</g>
	<g id="Экологически__x0D_чистые_материалы">
		<rect x="50" y="1663.8" class="st4" width="350" height="139.4"/>
		<text transform="matrix(1 0 0 1 50 1678.9666)" class="st1"><tspan x="0" y="0" class="st2 st11">Экологически </tspan><tspan x="0" y="24" class="st2 st11">чистые материалы</tspan></text>
	</g>
	<g id="Поставляется_в__подарочной_упаковке_1_">
		<rect x="384" y="1973.8" class="st4" width="350" height="139.4"/>
		
			<text id="Поставляется_в__подарочной_упаковке" transform="matrix(1 0 0 1 384 1988.9666)" class="st1"><tspan x="0" y="0" class="st2 st11">Поставляется в </tspan><tspan x="0" y="24" class="st2 st11">подарочной упаковке</tspan></text>
	</g>
	<g id="Увеличивает_лайки_на_фотографиях_1_">
		<rect x="50" y="1973.8" class="st4" width="350" height="139.4"/>
		<text id="Увеличивает_лайки_на_фотографиях" transform="matrix(1 0 0 1 50 1988.9666)" class="st1"><tspan x="0" y="0" class="st2 st11">Увеличивает лайки</tspan><tspan x="0" y="24" class="st2 st11">на фотографиях</tspan></text>
	</g>
	<g id="icon-5.svg_xA0_Изображение_1_">
		
			<image style="display:inline;overflow:visible;" width="34" height="27" id="icon-5.svg_xA0_Изображение" xlink:href="B46301B3.png"  transform="matrix(1 0 0 1 58 1923)">
		</image>
	</g>
	<g id="icon-3.svg_xA0_Изображение_1_">
		
			<image style="display:inline;overflow:visible;" width="47" height="27" id="icon-3.svg_xA0_Изображение" xlink:href="B46301B6.png"  transform="matrix(1 0 0 1 51 1763)">
		</image>
	</g>
	<g id="icon-4.svg_xA0_Изображение_1_">
		
			<image style="display:inline;overflow:visible;" width="55" height="23" id="icon-4.svg_xA0_Изображение" xlink:href="B46301AA.png"  transform="matrix(1 0 0 1 378 1766)">
		</image>
	</g>
	<g id="icon-1.svg_xA0_Изображение_1_">
		
			<image style="display:inline;overflow:visible;" width="33" height="38" id="icon-1.svg_xA0_Изображение" xlink:href="B46301A9.png"  transform="matrix(1 0 0 1 58 1606)">
		</image>
	</g>
	<g id="icon-6.svg_xA0_Изображение_1_">
		
			<image style="display:inline;overflow:visible;" width="33" height="32" id="icon-6.svg_xA0_Изображение" xlink:href="B46301D6.png"  transform="matrix(1 0 0 1 387 1919)">
		</image>
	</g>
	<g id="Анастасия_Красильникова__x40_misssssiskras_1_">
		
			<text id="Анастасия_Красильникова__x40_misssssiskras" transform="matrix(1 0 0 1 48.8672 2420.918)" class="st1"><tspan x="0" y="0" class="st2 st8">Анастасия Красильникова</tspan><tspan x="0" y="30" class="st9 st7 st8">@misssssiskras</tspan></text>
	</g>
</g>
<g id="featured_1_" class="st0">
	<g id="triple-set-tablet_xA0_Изображение_1_">
		
			<image style="display:inline;overflow:visible;" width="333" height="404" id="triple-set-tablet_xA0_Изображение" xlink:href="B46301D9.png"  transform="matrix(1 0 0 1 384 986)">
		</image>
	</g>
	<g id="Вязаные_корзинки">
		<rect x="44" y="887" class="st4" width="700" height="73.7"/>
		<text transform="matrix(1 0 0 1 44 917.3998)" class="st1 st2 st5">Вязаные корзинки</text>
	</g>
	<g id="zigzag-line-desktop.svg_xA0_Изображение_1_">
		
			<image style="display:inline;overflow:visible;" width="768" height="17" id="zigzag-line-desktop.svg_xA0_Изображение" xlink:href="B46301DA.png"  transform="matrix(1 0 0 1 0 1442)">
		</image>
	</g>
	<g id="zigzag-line-desktop.svg_copy_xA0_Изображение_1_">
		
			<image style="display:inline;overflow:visible;" width="768" height="17" id="zigzag-line-desktop.svg_copy_xA0_Изображение" xlink:href="B46301D8.png"  transform="matrix(1 0 0 1 0 2623)">
		</image>
	</g>
	
		<g id="Экологически_чистая_пряжа_x2C__ручная_работа._Доступны_в_шести_расц_1_">
		<rect x="48" y="986" class="st4" width="299" height="88.1"/>
		
			<text id="Экологически_чистая_пряжа_x2C__ручная_работа._Доступны_в_шести_расц" transform="matrix(1 0 0 1 48 997.3599)" class="st1"><tspan x="0" y="0" class="st9 st7 st8">Экологически чистая пряжа, ручная </tspan><tspan x="0" y="30" class="st9 st7 st8">работа. Доступны в шести расцветках, и </tspan><tspan x="0" y="60" class="st9 st7 st8">трех размерах.</tspan></text>
	</g>
	<g id="Цвет:_x0D__x0D_Диаметр:_x0D__x0D_Высота:">
		<rect x="48" y="1118" class="st4" width="87.5" height="184.7"/>
		<text transform="matrix(1 0 0 1 48 1128.6499)" class="st1"><tspan x="0" y="0" class="st9 st7 st12">Цвет:</tspan><tspan x="0" y="40" class="st9 st7 st12">Диаметр:</tspan><tspan x="0" y="80" class="st9 st7 st12">Высота:</tspan></text>
	</g>
	<g id="_xAB_Тиффани_xBB__x2F_серый_x0D__x0D_25_см_x0D__x0D_15_см">
		<rect x="146" y="1118" class="st4" width="155" height="106"/>
		<text transform="matrix(1 0 0 1 146 1128.6499)" class="st1"><tspan x="0" y="0" class="st9 st7 st12">«Тиффани»/серый</tspan><tspan x="0" y="40" class="st9 st7 st12">25 см</tspan><tspan x="0" y="80" class="st9 st7 st12">15 см</tspan></text>
	</g>
	<g id="table_line_xA0_Изображение_5_">
		
			<image style="display:inline;overflow:visible;" width="291" height="1" id="table_line_xA0_Изображение_4_" xlink:href="B46301DE.png"  transform="matrix(1 0 0 1 49 1143)">
		</image>
	</g>
	<g id="table_line_xA0_Изображение_3_">
		
			<image style="display:inline;overflow:visible;" width="291" height="1" id="table_line_xA0_Изображение_2_" xlink:href="B46301DB.png"  transform="matrix(1 0 0 1 49 1183)">
		</image>
	</g>
	<g id="table_line_xA0_Изображение_1_">
		
			<image style="display:inline;overflow:visible;" width="291" height="1" id="table_line_xA0_Изображение" xlink:href="B46301E6.png"  transform="matrix(1 0 0 1 49 1223)">
		</image>
	</g>
	<g id="ghost_btn_xA0_Изображение_1_">
		
			<image style="display:inline;overflow:visible;" width="292" height="52" id="ghost_btn_xA0_Изображение" xlink:href="B46301E7.png"  transform="matrix(1 0 0 1 48 1338)">
		</image>
	</g>
	<g id="ЗАКАЗАТЬ">
		<text transform="matrix(1 0 0 1 162.6082 1368.8438)" class="st6 st10 st8">ЗАКАЗАТЬ</text>
	</g>
	<g id="ТОВАР_x0D_НЕДЕЛИ">
		<text transform="matrix(1 0 0 1 632.2351 901.6406)" class="st1"><tspan x="0" y="0" class="st13 st10 st8">ТОВАР</tspan><tspan x="-5.2" y="16" class="st13 st10 st8">НЕДЕЛИ</tspan></text>
	</g>
	<g id="Цена:_990_руб.">
		<text transform="matrix(1 0 0 1 121.1123 1298.918)" class="st6 st2 st3">Цена: 990 руб.</text>
	</g>
</g>
<g id="header_1_">
	<g id="grey_back_xA0_Изображение_1_" class="st0">
		
			<image style="display:inline;overflow:visible;" width="768" height="746" id="grey_back_xA0_Изображение" xlink:href="B46301FD.png"  transform="matrix(1 0 0 1 0 88)">
		</image>
	</g>
	<g id="hero-desktop.jpg_xA0_Изображение_1_" class="st0">
		
			<image style="display:inline;overflow:visible;" width="768" height="746" id="hero-desktop.jpg_xA0_Изображение" xlink:href="B46301FB.png"  transform="matrix(1 0 0 1 0 88)">
		</image>
	</g>
	<g id="green_back_xA0_Изображение_3_" class="st0">
		
			<image style="display:inline;overflow:visible;" width="334" height="119" id="green_back_xA0_Изображение_2_" xlink:href="B46301C5.png"  transform="matrix(1 0 0 1 50 715)">
		</image>
	</g>
	<g id="Предметы__x0D_интерьера" class="st0">
		<text transform="matrix(1 0 0 1 84.9297 765.3984)" class="st1"><tspan x="0" y="0" class="st14 st15 st11">Предметы </tspan><tspan x="0" y="30" class="st14 st15 st11">интерьера</tspan></text>
	</g>
	<g id="green_back_xA0_Изображение_1_" class="st0">
		
			<image style="display:inline;overflow:visible;" width="334" height="119" id="green_back_xA0_Изображение" xlink:href="B46301C7.png"  transform="matrix(1 0 0 1 384 715)">
		</image>
	</g>
	<g id="Милые_штуки_ручной__работы_для_дома_1_" class="st0">
		<rect x="25.4" y="250.8" class="st4" width="717.3" height="270.5"/>
		
			<text id="Милые_штуки_ручной__работы_для_дома" transform="matrix(1 0 0 1 135.9531 281.21)" class="st1"><tspan x="0" y="0" class="st16 st2 st5">Милые штуки ручной </tspan><tspan x="50.8" y="50" class="st16 st2 st5">работы для дома</tspan></text>
	</g>
	<g id="toy-svg_xA0_Изображение_1_" class="st17">
		
			<image style="display:inline;overflow:visible;" width="61" height="61" id="toy-svg_xA0_Изображение" xlink:href="B46301C4.png"  transform="matrix(1 0 0 1 624 746)">
		</image>
	</g>
	<g id="zigzag-fill-desktop.svg_xA0_Изображение_1_">
		
			<image style="overflow:visible;" width="768" height="24" id="zigzag-fill-desktop.svg_xA0_Изображение" xlink:href="B46301CB.png"  transform="matrix(1 0 0 1 0 822)">
		</image>
	</g>
	<g id="interior.svg_xA0_Изображение_1_" class="st17">
		
			<image style="display:inline;overflow:visible;" width="41" height="62" id="interior.svg_xA0_Изображение" xlink:href="B46301CD.png"  transform="matrix(1 0 0 1 307 745)">
		</image>
	</g>
	<g id="Детские__x0D_игрушки" class="st0">
		<text transform="matrix(1 0 0 1 419.9297 765.3984)" class="st1"><tspan x="0" y="0" class="st14 st15 st11">Детские </tspan><tspan x="0" y="30" class="st14 st15 st11">игрушки</tspan></text>
	</g>
	<g id="Каталог_товаров" class="st0">
		<text transform="matrix(1 0 0 1 48.8672 123.918)" class="st1 st2 st18">Каталог товаров</text>
	</g>
	<g id="Вязание_на_заказ" class="st0">
		<text transform="matrix(1 0 0 1 216.8672 123.918)" class="st1 st2 st18">Вязание на заказ</text>
	</g>
	<g id="Бесплатная_доставка_по_России" class="st0">
		<text transform="matrix(1 0 0 1 487.71 123.918)" class="st6 st19 st18">Бесплатная доставка по России</text>
	</g>
</g>
<g id="top_menu_1_" class="st0">
	<g id="mishka-logo-tablet.svg_xA0_Изображение_1_">
		
			<image style="display:inline;overflow:visible;" width="113" height="46" id="mishka-logo-tablet.svg_xA0_Изображение" xlink:href="B46301CF.png"  transform="matrix(1 0 0 1 48 22)">
		</image>
	</g>
	<g id="Layer_9_xA0_Изображение_1_" class="st20">
		
			<image style="display:inline;overflow:visible;" width="768" height="1" id="Layer_9_xA0_Изображение" xlink:href="B46301CC.png"  transform="matrix(1 0 0 1 0 88)">
		</image>
	</g>
	<g id="Layer_12_copy_xA0_Изображение_1_" class="st20">
		
			<image style="display:inline;overflow:visible;" width="1" height="88" id="Layer_12_copy_xA0_Изображение" xlink:href="B46301C6.png"  transform="matrix(1 0 0 1 453 0)">
		</image>
	</g>
	<g id="Layer_12_copy_2_xA0_Изображение_1_" class="st20">
		
			<image style="display:inline;overflow:visible;" width="1" height="88" id="Layer_12_copy_2_xA0_Изображение" xlink:href="B4630220.png"  transform="matrix(1 0 0 1 370 0)">
		</image>
	</g>
	<g id="Корзина:_пока_пуста">
		<text transform="matrix(1 0 0 1 529.1797 48.918)" class="st1 st2 st8">Корзина: пока пуста</text>
	</g>
	<g id="search.svg_xA0_Изображение_1_" class="st21">
		
			<image style="display:inline;overflow:visible;" width="18" height="19" id="search.svg_xA0_Изображение" xlink:href="B4630223.png"  transform="matrix(1 0 0 1 404 36)">
		</image>
	</g>
	<g id="cart.svg_xA0_Изображение_1_" class="st21">
		
			<image style="display:inline;overflow:visible;" width="21" height="18" id="cart.svg_xA0_Изображение" xlink:href="B4630221.png"  transform="matrix(1 0 0 1 485 35)">
		</image>
	</g>
</g>
</svg>
